# xmcd
#
# Track frame offsets:
#   150
#   17885
#   33112
#   48675
#   64782
#   81715
#   96790
#   112602
#   131582
#   151852
#   171025
#   188930
#   215432
#
# Disc length: 3034 seconds
#
# Revision: 4
# Processed by: cddbd v1.5PL3 Copyright (c) Steve Scherf et al.
# Submitted via: Media_Universe 3.0
#
DISCID=aa0bd80d
DTITLE=Indigenous - Indigenous
DYEAR=2003
DGENRE=Blues
TTITLE0=C'Mon Suzie
TTITLE1=You Turn My World Around
TTITLE2=What You Do To Me
TTITLE3=Hold On
TTITLE4=I'm Still Here
TTITLE5=Be Right There
TTITLE6=Movin' On
TTITLE7=Want You To Say
TTITLE8=Shame Shame Shame
TTITLE9=Take Some Time
TTITLE10=Where Are You
TTITLE11=I Wonder
TTITLE12=Monkeyshuffle
EXTD=
EXTT0=
EXTT1=
EXTT2=
EXTT3=
EXTT4=
EXTT5=
EXTT6=
EXTT7=
EXTT8=
EXTT9=
EXTT10=
EXTT11=
EXTT12=
PLAYORDER=
